<svg
  xmlns="http://www.w3.org/2000/svg"
  width="24"
  height="24"
  viewBox="0 0 24 24"
>
  <path
    fill="#fff"
    d="M20.25 12c0-1.518-.49-2.93-1.32-4.08l1.74-1.74-1.5-1.5-1.74 1.74c-1.15-.83-2.57-1.33-4.08-1.33s-2.93.5-4.08 1.33L5.3 4.67 3.79 6.17l1.74 1.74C4.49 9.07 4 10.49 4 12s.49 2.93 1.33 4.08l-1.74 1.74 1.5 1.5 1.74-1.74c1.15.83 2.57 1.32 4.08 1.32s2.93-.49 4.08-1.32l1.74 1.74 1.5-1.5-1.74-1.74c.83-1.15 1.32-2.57 1.32-4.08zM12 16.5c-1.93 0-3.5-1.57-3.5-3.5s1.57-3.5 3.5-3.5 3.5 1.57 3.5 3.5-1.57 3.5-3.5 3.5z"
  />
</svg>
